<?xml version="1.0" encoding="utf-8"?>
<!-- Generator: Adobe Illustrator 24.3.0, SVG Export Plug-In . SVG Version: 6.00 Build 0)  -->
<svg version="1.1" id="Layer_1" xmlns="http://www.w3.org/2000/svg" xmlns:xlink="http://www.w3.org/1999/xlink" x="0px" y="0px"
	 viewBox="0 0 595.3 242.1" style="enable-background:new 0 0 595.3 242.1;" xml:space="preserve">
<style type="text/css">
	.st0{fill:#BDD52F;}
	.st1{fill:#0059B2;}
	.st2{font-family:'Gotham-Medium';}
	.st3{font-size:98.7726px;}
</style>
<path class="st0" d="M205.4,108.9c-2.9-11.8-10.3-19.5-22.1-22.3c-12.2-2.8-22.5,1.2-30.1,10.9c-7.5,9.6-8.2,20.5-2.6,31.2
	c7.6,14.5,15.8,28.6,23.7,42.8c1.7,3.1,3,3.1,4.7-0.1c7.8-14,15.5-28,23.3-42c2.4-4.4,3.8-9.1,3.8-14.2
	C205.9,113.3,205.9,111,205.4,108.9z M176.9,129.9c-8,0.1-14.7-6.5-14.8-14.5c-0.1-8.1,6.3-14.7,14.4-14.9
	c7.9-0.2,14.7,6.5,14.8,14.5C191.4,123.1,184.9,129.9,176.9,129.9z"/>
<text transform="matrix(1 0 0 1 19.6385 141.221)"><tspan x="0" y="0" class="st1 st2 st3">rel  cate</tspan><tspan x="402.5" y="0" class="st0 st2 st3">me</tspan></text>
</svg>
